<svg width="24" height="25" viewBox="0 0 24 25" fill="none" xmlns="http://www.w3.org/2000/svg">
<path d="M15 3.5H9C6.79086 3.5 5 5.29086 5 7.5V15.5" stroke="#ECE9E9"/>
<path d="M13.5 7C14.6843 7 15.5307 7.00064 16.1836 7.07422C16.7461 7.13763 17.1177 7.25075 17.4043 7.43359L17.5215 7.5166C17.6515 7.6164 17.772 7.7285 17.8799 7.85156L17.9834 7.97852C18.2153 8.28089 18.3533 8.67381 18.4258 9.31641C18.4994 9.96925 18.5 10.8157 18.5 12V16C18.5 17.1843 18.4994 18.0307 18.4258 18.6836C18.3624 19.2461 18.2493 19.6177 18.0664 19.9043L17.9834 20.0215C17.8836 20.1515 17.7715 20.272 17.6484 20.3799L17.5215 20.4834C17.2191 20.7153 16.8262 20.8533 16.1836 20.9258C15.5307 20.9994 14.6843 21 13.5 21C12.3157 21 11.4693 20.9994 10.8164 20.9258C10.2539 20.8624 9.88231 20.7493 9.5957 20.5664L9.47852 20.4834C9.34846 20.3836 9.22802 20.2715 9.12012 20.1484L9.0166 20.0215C8.78468 19.7191 8.64666 19.3262 8.57422 18.6836C8.50064 18.0307 8.5 17.1843 8.5 16V12C8.5 10.8157 8.50064 9.96925 8.57422 9.31641C8.63763 8.75391 8.75075 8.38231 8.93359 8.0957L9.0166 7.97852C9.1164 7.84846 9.2285 7.72802 9.35156 7.62012L9.47852 7.5166C9.78089 7.28468 10.1738 7.14666 10.8164 7.07422C11.4693 7.00064 12.3157 7 13.5 7Z" stroke="#ECE9E9"/>
</svg>
